<?xml version="1.0" encoding="utf-8"?>
<!-- Generator: Adobe Illustrator 26.0.2, SVG Export Plug-In . SVG Version: 6.00 Build 0)  -->
<svg version="1.1" xmlns="http://www.w3.org/2000/svg" xmlns:xlink="http://www.w3.org/1999/xlink" x="0px" y="0px"
	 viewBox="0 0 1132.5 1132.5" style="enable-background:new 0 0 1132.5 1132.5;" xml:space="preserve">
<style type="text/css">
	.st0{fill:#E21F27;}
	.st1{display:none;fill:#FEFEFE;}
	.st2{fill:#062A33;}
	.st3{fill:#FEFEFE;}
	.st4{fill:#D3DFEB;}
	.st5{fill:#E7ECF1;}
	.st6{fill:#E7EBF0;}
	.st7{fill:#D0DEEA;}
	.st8{fill:#FBFDFD;}
	.st9{fill:#E6EBF0;}
	.st10{fill:#D2DDEA;}
	.st11{fill:#EDF0F4;}
	.st12{fill:#E9ECF2;}
	.st13{fill:#FBFCFC;}
	.st14{fill:#EB3634;}
	.st15{fill:#FBFCFD;}
	.st16{fill:#C81D1E;}
	.st17{fill:#FDFEFE;}
	.st18{fill:#D8E1E9;}
	.st19{fill:#FCFDFD;}
	.st20{fill:#ED3633;}
	.st21{fill:#2E5270;}
	.st22{fill:#CC1E22;}
	.st23{fill:#CCDCEB;}
	.st24{fill:#EB3532;}
	.st25{fill:#D1DCE8;}
	.st26{fill:#EC3A33;}
	.st27{fill:#FDFDFD;}
	.st28{fill:#5E829D;}
	.st29{fill:#FBFBFB;}
	.st30{fill:#6F8EA1;}
	.st31{fill:#587994;}
	.st32{fill:#7296B1;}
	.st33{fill:#FBFAF9;}
	.st34{fill:#43698A;}
	.st35{fill:#3D6783;}
	.st36{fill:#6F8AA4;}
	.st37{fill:#AFD0D3;}
	.st38{fill:#FAFCFC;}
	.st39{fill:#072A33;}
	.st40{fill:#072933;}
	.st41{fill:#062A34;}
	.st42{fill:#092C37;}
	.st43{fill:#042D3C;}
	.st44{fill:#E2E6EA;}
	.st45{fill:#062936;}
	.st46{fill:#082932;}
	.st47{fill:#062C38;}
	.st48{fill:#EA322D;}
	.st49{fill:#0C2D31;}
	.st50{fill:#08272E;}
	.st51{fill:#FCF1F0;}
	.st52{fill:#DDE6ED;}
	.st53{fill:#FDF4F3;}
	.st54{fill:#EB3833;}
	.st55{fill:#C91D1F;}
	.st56{fill:#ED3332;}
	.st57{fill:#C71F24;}
	.st58{fill:#EF3535;}
	.st59{fill:#CA201F;}
	.st60{fill:#052B32;}
	.st61{fill:#FDFDFB;}
	.st62{fill:#042B35;}
	.st63{fill:#FDFCFC;}
	.st64{fill:#FDFBFB;}
	.st65{font-family:'VisbyRoundCF-Heavy';}
	.st66{font-size:41.1039px;}
	.st67{fill:#FFFFFF;}
</style>
<g id="Sitecore_00000010303441177836532560000018389931752194384040_">
	<path class="st0" d="M1056.6,282.6C900.3,12.5,553.2-80.4,282.6,75.9C12.5,232.2-80.4,579.3,75.9,849.9
		c156.3,270.1,503.4,362.9,774,206.7C1120,900.3,1212.9,553.2,1056.6,282.6z M209,772.9c-113.8-197-46.4-450.1,150.6-564
		c197-113.8,450.1-46.4,564,150.6c113.8,197,46.4,450.1-150.6,564C575.9,1037.3,322.8,970,209,772.9z"/>
</g>
<g id="Layer_1">
	<g>
		<path class="st1" d="M51.7,0.8c341.4,0,682.8,0,1024.3,0c0,341.4,0,682.8,0,1024.3c-341.4,0-682.8,0-1024.3,0
			C51.7,683.8,51.7,342.3,51.7,0.8z"/>
		<path class="st2" d="M776.2,386.8c-5.5-6.2-11.7-11.9-19.3-15.5c-3-1.5-4-3.9-3.7-7.1c0.7-8-0.2-16-1.7-23.8
			c-7.4-38.3-36.3-72.7-72.8-86.6c-12.7-4.8-25.7-7.7-39.4-5.4c-3,0.5-5.7-0.5-7.9-2.6c-1.3-1.2-2.5-2.5-3.8-3.7
			c-15.3-14.4-33.3-22.9-54.1-25.4c-2.8-0.3-5.7-0.3-8.6-0.5c-2-0.1-2.9-1-3-3c-0.2-5.3-0.3-10.5-0.3-15.8c0-2.5,0.7-3.7,3.2-4
			c3.5-0.5,6.4-1.9,9.2-3.7c1.3-0.8,2.9-1.3,4.4-1.8c4.9-1.8,9.1-4.6,12.1-9c1.1-1.6,2.2-3.1,3.3-4.7c4.1-5.6,6.9-11.8,8.7-18.5
			c1.4-5.1,2.1-10.4,2.1-15.6c0-5.8-1.3-11.4-3.1-16.9c-1.6-5.1-4.1-9.7-8-13.5c-2.6-2.6-5.2-5.2-7.5-8.1c-4-4.9-9.3-7.6-15.2-9.5
			c-6.9-2.3-14.1-2.8-21.3-2.9c-5.2-0.1-10.2,0.7-14.8,3.3c-1.8,1-3.7,1.8-5.6,2.7c-4.1,1.8-7.9,4.2-11.4,7
			c-11.7,9.3-17.6,21.7-18.6,36.4c-0.7,9.9,1.5,19.4,6.2,28.2c1.4,2.7,3.1,5.2,4.7,7.8c3.2,5.4,7.8,9.3,13.3,12.1
			c4.8,2.5,9.5,5.3,14.8,6.5c0.2,0,0.3,0.1,0.4,0.2c2,0.8,3.2,2.1,3.1,4.3c0,0.3,0,0.6,0,1c0,4.3,0,8.6,0,12.9
			c0,3.7-0.8,4.4-4.6,4.5c-1,0-1.9,0-2.9,0c-4.2,0-8.3,0.5-12.4,1.3c-16.7,3.2-31.2,11.1-44.2,21.8c-2.3,1.9-4.3,4.3-6.4,6.5
			c-1.9,2-4,3.1-6.8,2.9c-1.1-0.1-2.2-0.1-3.3-0.2c-14.3-1.6-28,0.9-41.1,6.7c-17.6,7.8-32,19.8-44.2,34.5
			c-14.8,17.8-27.3,48.4-25.3,73.2c0.4,4.5-1.2,7.8-5.3,9.8c-0.9,0.4-1.7,1-2.5,1.5c-8.5,5.3-15.8,12-21.5,20.2
			c-14.5,21-19.2,44-13.4,68.9c3.4,14.6,10.5,27.4,21.4,37.9c7,6.7,15.1,11.8,24.2,15.1c6,2.2,10,6.1,12,12.1c1,3,2.3,6,3.7,8.8
			c10.9,23.7,28.7,40,53.2,49c10.8,3.9,22,5.5,33.4,5.9c9.1,0.3,18.2,0.4,27.3,0.6c1.4,0,2.9,0.1,4.3,0.4c1.4,0.3,2.3,1.2,2.4,2.6
			c0.1,2.6,0.1,5.1,0,7.7c-0.1,1.4-1,2.3-2.5,2.5c-0.9,0.1-1.9,0.1-2.9,0.1c-5.1-0.2-10.2,0.1-15.3,0.7c-11.9,1.4-23.1,5.1-33,12
			c-3.3,2.3-6.4,4.8-9.6,7.2c-6.8,5.3-11.9,12-16.5,19.1c-1.6,2.5-3.6,4-6.5,4.3c-1.4,0.1-2.9,0.2-4.3,0.3c-2.2,0.2-4.5,0.2-6.7,0.6
			c-19,3.6-33.5,13.7-43.2,30.4c-5.1,8.7-7.6,18.2-7.1,28.4c0.1,2.6,0.3,5.1,0.7,7.6c0.4,3.2-0.2,5.9-2.5,8.3
			c-3.5,3.7-5.3,8.3-6.1,13.3c-0.5,2.9-0.6,5.7-0.6,8.6c0,8.8,0,17.6,0,26.4h0c0,8.5,0,16.9,0,25.4c0,2.4,0.2,4.8,0.2,7.2
			c1.9,1.5,3.7,3,5.6,4.4c42.7,31.6,90.3,52.7,142.1,64.2c3.7,0.8,7.4,1.7,11.1,2.3c33.8,6.5,68.3,7.3,102.4,2.4
			c2.5-0.2,5-0.6,7.5-1.1c0.2,0,0.3-0.1,0.5-0.1c1.2-0.2,2.4-0.4,3.6-0.6c0.6-0.1,1-0.3,1.5-0.5c2.1-0.4,4.1-0.9,6.2-1.3
			c29.3-6.4,57.6-15.4,85-27.7c23.8-10.7,46.3-23.8,67.3-39.4c4.1-3.1,3.4-1.8,3.5-7.1c0-0.5,0-1,0-1.4c0-18.1,0-36.1-0.1-54.2
			c0-2.1-0.1-4.2-0.5-6.2c-0.9-6-3.2-11.4-7-16.1c-1.9-2.4-2.7-5-2.2-8.1c0.1-0.8,0.2-1.6,0.3-2.4c1.3-8.2,0.2-16.3-2.4-24.1
			c-7.2-21.7-27.7-37.4-50.5-39c-2.1-0.1-4.2-0.2-6.2-0.3c-2.7-0.2-5-1.1-6.4-3.6c-2.3-4.1-5.7-7.3-8.5-11c-4.4-6-10-10.7-16.2-14.7
			c-1.1-0.7-2.1-1.4-3.2-2.1c-5.9-3.9-12.3-6.7-19.1-8.7c-8.7-2.5-17.5-3.4-26.5-3.3c-1.3,0-2.6,0.1-3.8-0.1c-2.5-0.3-3.7-1.5-3.9-4
			c-0.2-2.1-0.1-4.1,0.3-6.2c0.3-1.6,1.3-2.5,2.9-2.6c4-0.2,8-0.6,12-0.7c7.3-0.2,14.7-0.3,22-0.8c10.8-0.7,21.1-3.1,31.2-7
			c27.2-10.7,45.9-29.5,55.3-57.3c0.3-0.8,0.5-1.5,0.8-2.3c1.2-3.6,3.7-5.9,7.3-7c0.9-0.3,1.9-0.5,2.8-0.8
			c10.1-3.1,19-8.2,26.4-15.8c13-13.5,20.5-29.7,22.7-48.1C800.5,427.8,793,405.7,776.2,386.8z"/>
		<path class="st2" d="M553.7,197.5c-27.2-0.1-50-17.9-55.4-43.9c-6.4-31,14-60.3,43.8-65.9c29.9-5.7,56.1,14.4,62.9,39.9
			c7.7,28.7-9.5,60.1-38.7,68.1C561.6,197,556.9,197.5,553.7,197.5z"/>
		<path class="st3" d="M425.6,334c2.9-1.7,6-1.9,9.2-1.9c7.5,0,15-0.1,22.5-0.1c5.4,0,10.9,0,16.3-0.1c3-0.1,5.2,0.9,6.9,3.4
			c2.7,4,5.9,7.5,9.4,10.9c10.6,10.2,23.1,16.3,37.8,17.9c2.7,0.3,5.4,0.6,8.1,0.6c10.7,0,21.4,0,32.1-0.1
			c5.9-0.1,11.8-0.6,17.6-2.1c12.8-3.3,23.2-10.3,31.8-20.2c1.8-2,3.4-4.3,5-6.4c0.8-1,1.3-2.2,2.6-2.7c12.6-0.9,25.2,0,37.8-0.4
			c5.3-0.2,9.8,0.4,13.9,4.5c3.1,3.1,7.3,5.1,10.7,8c12.6,11,18.5,25.2,19.7,41.7c1.5,20.8-0.6,41.4-0.9,62.1
			c-0.2,12.3,0.7,24.6,1,36.9c1,36.3-23.4,58.9-55,65.3c-14.9,3-30.1,4-45.3,4.1c-28.1,0.1-56.3,0.5-84.4-0.1
			c-23.1-0.5-46.3-0.2-69.3-2.8c-27.2-3.1-50.1-23.9-55-50.1c-1.3-5.5-0.7-11.1-0.9-16.7c-1.3-27.8-0.9-55.6-1.1-83.3
			c-0.1-8.2,0.6-16.3,1.3-24.4c1.2-14.9,10.5-25.3,21-34.8C421.5,340.3,424.3,337.8,425.6,334z"/>
		<path class="st3" d="M542.9,863.8c-8-0.3-15.1-1.4-19.2-2c-13-1.8-25.8-4-38.6-7c-15.1-3.5-29.9-7.8-44.4-13.4
			c-0.9-0.3-1.7-0.8-2.6-1.2c-0.5-0.4-1.3-0.4-1.8-0.8l-0.1-0.1c-1.5-1.8-1.3-3.9-1.3-6c0-43.2-0.2-86.3,0.1-129.5
			c0.1-17.6,5.1-33.3,18.7-45.6c6.6-6,14.2-9.7,22.7-11.8c2-0.5,5.5-0.7,4.8-3.5c-0.7-2.9-3.8-1.3-5.8-0.9
			c-27.2,4.7-42.1,28.3-46.2,49.3c-0.4,2.2-0.5,4.5-1.7,6.4c-1.1,1.8-2.7,2.6-4.8,2.3c-2.6-0.4-2.2-2.4-2.1-4.1
			c0.1-3.2-0.4-6.4,0.3-9.5c-0.2-3.9,0.9-7.6,2-11.3c4.6-15,13.1-27.3,26-36.3c8.1-5.7,17.2-9.1,27.1-10c3.2-0.3,6.4-0.6,9.6-0.7
			c5.5-0.2,10,1.9,13.4,6.2c1.6,2,2.9,4.2,4.3,6.3c8.1,12.2,19,20.6,33.3,24.3c14,3.6,27.9,3,41.5-1.6c12.2-4.2,21.7-12.1,28.9-22.7
			c2.1-3,3.8-6.3,5.5-9.5c0.9-1.8,2.1-2.7,4.1-2.8c18.1-0.7,35.1,2.5,49.4,14.5c11.1,9.3,18.8,20.8,22.1,35c1,4.4,1.4,8.8,1.7,13.3
			c0,3,2.2,6.8-3,7.8c-3.9-0.6-4.3-3.9-4.9-6.8c-2.2-11-6.5-21-13.5-29.8c-6.5-8.1-14.9-13.9-24.4-18.1c-1.7-0.8-4.2-2.4-5.4,0.4
			c-1,2.5,1.2,3.7,3.1,4.6c5.5,2.6,10.6,6,15.1,10.1c11.9,10.8,17.2,24.6,17.9,40.5c0.3,45,0,90.1,0.2,135.1c0,1.1-0.1,2.2-0.6,3.3
			c-3.7,2.2-7.9,3.3-11.9,4.8c-15.9,5.8-32.3,10-48.8,13.3c-8.3,1.7-16.6,3.2-25,4.6c-4.1,0.7-0.8,0.1-6.2,0.8
			c-3.3,0.6-23.8,1.8-27,1.9"/>
		<path class="st4" d="M399.7,501.9c1.3,7,3.9,13.5,7.6,19.5c5.2,8.3,12,15.2,20.3,20.5c6.3,4,13.1,6.6,20.3,7.9
			c7,1.3,14.1,2.3,21.3,2c0.6,0,1.3-0.1,1.9,0c6.9,1.6,14,0.7,21,0.9c3.4,0.1,6.7,0,10.1,0c2.2,0,4.4-0.1,6.6,0.7
			c1.2,0.4,2.5,0.3,3.8,0.3c34.4,0,68.7,0.1,103.1-0.1c5.4,0,10.8-0.6,16.2-1c6.8-0.5,13.5-1.7,20.3-2.8c4.2-0.7,8.3-2.1,12.3-3.7
			c8.8-3.5,16.9-8.1,23.8-14.8c8.3-8,13.6-17.7,15.9-28.8c0.8-3.7,1.5-7.5,1.4-11.3c-0.2-8.5-0.1-16.9-0.1-25.4c0-1.9,0-3.8-0.6-5.7
			c-0.4-1.2-0.3-2.5-0.3-3.8c0-5.6,0-11.2,0-16.8c0-1.8,0-3.5,0.6-5.2c0.4-1.2,0.3-2.5,0.4-3.8c0.1-4,0.3-7.9,0.7-11.9
			c0.6-4.7,0.7-9.5-0.4-14.3c-0.6-2.3-0.6-4.8,0-7.1c0.5-2,0.6-3.7-0.1-5.6c-0.3-0.9-0.2-1.9-0.2-2.9c0.2-11-3.2-21-8.6-30.4
			c-3.1-5.4-7.6-9.9-12.5-13.7c-3-2.3-6.2-4.5-9.4-6.6c-1.1-0.7-2.3-1.4-2.8-2.5c-1-2.2-2.8-2.3-4.8-2.3c-8.8,0-17.6,0-26.4-0.1
			c-5.4,0-10.9,0-16.3-0.1c0.4-0.6,0.9-0.9,1.6-1c1-0.1,1.9-0.1,2.9-0.1c12.3,0.1,24.6,0.2,36.9,0.2c18.9,0,37.3,13,44.1,31.4
			c1,2.7,1.8,5.5,2.2,8.3c0.2,1.7,0.5,3.5,0.9,5.2c0.6,2.9,2.3,4.9,5.4,5.4c1.3,0.2,2.5,0.4,3.8,0.6c1.8,0.3,2.2,0.8,2.2,2.5
			c0,1.9-0.1,3.8-0.1,5.8c0,28.9,0,57.8-0.1,86.8c0,6.7-0.3,13.4-0.5,20.1c-1.5,34.1-26.8,63.5-60.4,70.1
			c-6.9,1.4-13.9,2.2-20.9,2.8c-45.3,3.3-90.7,3.5-136,2.6c-14.5-0.3-29.1-1.1-43.6-1.8c-8.4-0.4-16.9-1-25.2-3.1
			c-28-7.1-46.3-24.7-55.5-51.8c-2.5-7.5-3.7-15.2-3.7-23.1c-0.1-35.3-0.1-70.6-0.1-105.9c0-0.8,0-1.6,0.1-2.4
			c0-0.2,0.4-0.4,0.6-0.7c2.3,2.2,1.6,5.1,1.6,7.7c0.1,28.2,0.1,56.5,0,84.7c0,3.6,0.1,6,4.8,6c3,0,6,1.9,9.3,1.8
			c1.7-0.1,2.6,1.1,2.7,2.8c0.1,1.6,0.3,3.2-0.1,4.8C396.8,496,397.4,499.1,399.7,501.9z"/>
		<path class="st5" d="M417.8,683.9c0,3.4,0.1,6.7,0.1,10.1c0,1.8,0.5,2.4,1.6,2.6c1.8,0.3,3.3-0.1,3.8-1.3c0.6-1.5,1.2-3,1.3-4.6
			c0.4-6.2,2.4-11.8,5-17.3c2.2-4.5,4.5-8.8,7.4-12.9c7.7-11,18-18.2,31.1-21.4c1.9-0.5,3.7-0.9,5.5-1.4c1.4-0.5,2.8-0.5,4.3-0.4
			c1.5,0.2,3.2,2.2,3.1,3.8c0,0.4-0.3,0.9-0.6,1.3c-0.7,0.9-1.7,1.4-2.8,1.7c-3.7,1.1-7.3,2.2-11,3.4c-5.6,1.7-10.4,4.8-14.5,8.9
			c-3.1,3-6.2,5.9-8.7,9.6c-3.9,5.7-6.7,11.9-8.2,18.7c-0.7,3-0.6,6-1.1,9c-1.2,6.2-0.8,12.4-0.8,18.6c-0.1,39.6,0,79.3,0,118.9
			c0,1.9,0,3.8-0.1,5.8c-4.7-1.1-9-3.1-13.5-4.7c-2.1-0.7-2.9-2.3-2.9-4.5c0-5.9,0-11.8,0-17.7c0-37.8,0-75.7,0.1-113.5
			C417,692.1,416.6,687.9,417.8,683.9z"/>
		<path class="st3" d="M519.4,141.1c0-7.1,2-13.6,6.1-19.4c12.6-18,36.4-18.7,50.4-2.9c8.7,9.9,11.1,21.5,6.5,34
			c-4.6,12.4-13.9,19.6-26.9,21.8c-7,1.1-13.7-0.3-19.7-4.2C525.2,163.4,519.8,153.6,519.4,141.1z"/>
		<path class="st6" d="M399.7,501.9c-0.3-0.2-0.6-0.3-0.8-0.5c-2.9-2-3.7-4.7-2.6-7.9c0.8-2.3,0.5-4.7,0.4-6.7
			c-0.7-1-1.3-0.8-1.9-0.6c-2.4,0.6-4.7,0.7-6.8-1c-0.6-0.5-1.5-0.5-2.2-0.8c-1.7-0.9-3-0.6-4.3,0.8c-0.3,0.3-0.8,0.5-1.1,0.7
			c-1.1-0.5-0.6-1.4-0.7-2.1c-0.1-0.6,0-1.3,0-1.9c0-30.3,0-60.6,0-90.8c0-2.1-0.1-4.1-0.2-6.2c0,0,0.1,0,0.1,0
			c1.2-0.8,2.8,0.2,3.9-0.9c0.4-0.2,0.8-0.5,1.2-0.7c3.6-1.1,5.3-3.9,6.2-7.3c0.4-1.5,0.6-3.1,0.9-4.7c2.6-12.9,9.4-23.2,19.9-31.1
			c4.1-3.1,8.7-5.4,13.8-6.2c1.3,1.9,1.2,3.5-0.6,5c-1.9,1.7-3.6,3.6-5.7,5c-2.1,1.4-3.8,3.4-5.5,5.3c-4.6,5.2-9.3,10.5-12,17.1
			c-1.7,4.2-2.7,8.4-2.9,12.9c-0.2,3.3,0.3,6.7-0.8,9.9c-0.3,1-0.1,2.2-0.1,3.3c0,22.6,0,45.3,0,67.9c0,1.7-0.1,3.5,0.6,5.2
			c0.6,1.4,0.4,2.8,0.4,4.3c0,5.3,0,10.5,0,15.8C398.8,491.2,398.4,496.6,399.7,501.9z"/>
		<path class="st7" d="M671.2,835.7c-0.5-1-1.1-2-1-3.1c0-0.6,0-1.3,0-1.9c0-45,0-90,0-135c0.6-0.6,1.4-1.2,2.1-0.8
			c3.4,2,6.9,1.4,10.4,0.8c3.4-0.5,3.5-0.6,3.7-3.7c0.1-1.1,0.2-2.2,0.2-3.3c0.9,1.1,0.7,2.4,0.7,3.7c0,3.2,0,6.4,0,9.6
			c0,39.8,0,79.5,0,119.3c0,1.8,0,3.5-0.1,5.3c-0.2,2-1.1,3.8-3,4.5c-4,1.5-7.8,3.6-12,4.7C671.9,835.8,671.6,835.7,671.2,835.7z"/>
		<path class="st8" d="M488.8,257.1c3-4.2,7.4-6.7,11.7-9.3c1.1,1.4,0.7,2.5,0.7,3.5c0,6.4,0,12.8,0.1,19.2
			c0.2,16,7.4,28.1,20.9,36.5c21.5,13.3,51,9.9,68.5-7.9c8.2-8.3,11.8-18.4,12.3-29.8c0.2-4.8,0.1-9.6,0.1-14.4c0-1.4,0-2.9,0-4.3
			c0-0.7,0.8-1.1,1.3-0.7c1.6,1.1,3.3,1.9,4.6,3.4c2.3,4.7,1.2,9.7,1.1,14.6c-0.3,10.3-1,20.7-5.7,30.3
			c-7.5,15.2-19.6,24.7-35.9,29.2c-13.9,1.2-27.6,1.9-41.1-3.1c-22-8.1-36.8-28.8-36.9-52.1C490.5,267,490.8,261.9,488.8,257.1z"/>
		<path class="st9" d="M488.8,257.1c0.3,0.4,0.6,0.8,1,1c1.6,0.9,2.1,2.3,2,4c-0.1,3.7,0,7.3,0,11c-0.1,6.1,1.4,12,3.4,17.7
			c2.8,7.9,7.3,14.8,13.6,20.4c5.2,4.7,11.1,8.6,17.6,11.2c4.3,1.7,8.7,3.1,13.3,3.7c3.3,0.4,6.6,0.6,9.9,1.2c0.8,0.1,1.6,0.2,2.4,0
			c5.5-1.5,11.1-0.7,16.6-0.9c0.4,3.1-2.1,4.1-4,5.2c-3.3,1.9-6.5,3.9-9.4,6.4c-3,2.5-6.3,4.1-10.4,4.2c-2.3,0-4.8,0.1-6.8,1.6
			c-12.6,0.9-23.7-2.7-33-11.3c-13.4-12.4-20.5-27.9-20.7-46.3c-0.1-6.5,0.2-13.1-0.7-19.6c-0.4-2.8,0.5-5.4,2.8-7.3
			C487.1,258.5,487.9,257.8,488.8,257.1z"/>
		<path class="st10" d="M537.9,343.6c1.3-2.5,4-2.9,6.1-2.8c4.9,0.3,8.4-2.1,11.8-5.1c2.2-2,4.8-3.6,7.5-4.9c2.2-1,4.1-2.4,5.3-4.6
			c0.4-0.5,0.9-0.8,1.6-0.9c3.4-0.5,6.4-2,9.3-3.6c5.5-3,10.5-6.6,14.8-11.1c6.6-7,10.8-15.2,12.8-24.7c0.6-2.8,0.5-5.7,1-8.5
			c1.5-8.1,0.5-16.2,1-24.3c2.7,0.9,4.5,3,6.4,4.9c5.6,5.7,5,3.5,4.4,11.6c-0.3,4.1-0.3,8.3-0.4,12.4c-0.2,5.8-0.7,11.5-1.9,17.1
			c-2.5,12.2-8.1,22.8-17,31.5c-6.9,6.8-15.4,10.8-24.8,12.6c-1.4,0.3-2.9,0.3-4.3,0.4c-10.5,0.1-21.1,0.1-31.6,0.1
			C539.1,343.9,538.5,343.7,537.9,343.6z"/>
		<path class="st11" d="M464.1,270.4c0.9,1.3,0.5,2.8,0.5,4.2c0.1,4.6,0.1,9.3,0.2,13.9c0.1,6.1,1,12.1,2.7,17.9
			c0.2,0.8,0.4,1.5,0.6,2.3c0.2,1.3-0.4,2.1-1.8,2.1c-1.1,0.1-2.2,0-3.4,0c-8.9,0-17.9-0.1-26.8,0.1c-11,0.3-21.4,3.1-31,8.7
			c-6.5,3.8-12.2,8.7-17.1,14.5c-1.1,1.3-1.9,2.9-3.6,3.7c-2.2-2.5-0.5-4.8,0.6-7c9.5-19.5,24-34.1,43.1-44.2c9.5-5,19.4-9,30.3-9.7
			c2.4-0.1,3.9-1.2,4.3-3.7C462.9,272.3,463,271.1,464.1,270.4z"/>
		<path class="st12" d="M720.9,339c-1.3-1.4-2.6-2.8-3.9-4.2c-10-11.3-22.1-19.1-36.9-22.4c-7.5-1.7-15.2-1.9-22.8-1.9
			c-5.6,0-11.2,0.3-16.7,0.3c-5,0-5.8-1-4.3-5.6c1.6-5.1,2.2-10.3,2.4-15.5c0.1-3.5-0.3-7,0.8-10.4c4.5-2.3,9.4-1.7,13.9-0.6
			c19.9,4.6,37.1,13.8,50.6,29.4c1.1,1.8,2.4,3.4,3.9,4.9c0.3,0.4,0.6,0.7,0.8,1.1c3.9,6.1,8.8,11.7,11.9,18.3
			C721.6,334.6,723.1,336.8,720.9,339z"/>
		<path class="st13" d="M464.1,270.4c-0.1,1.3-0.1,2.5-0.2,3.8c-0.2,2.7-1.5,4-4.3,4.1c-2.5,0.1-5,0.3-7.5,0.8
			c-5.3,1-10.5,2.6-15.4,4.8c-7.4,3.3-14.6,7.1-21.1,12c-10.2,7.7-19,16.8-25.4,28.1c-1.6,2.9-3.3,5.8-4.8,8.8
			c-0.9,1.6-1.2,3.3-0.9,5.1c-0.7,1.2-1.4,2.5-2.2,3.7c-4,6.3-7.4,13-9.8,20.6c-0.9-0.9-0.8-1.8-1-2.6c-0.2-0.9-0.3-1.9-0.3-2.9
			c-0.2-5,0.4-9.9,1.5-14.7c5.3-22.5,16.6-41.2,34.8-55.6c0.7-0.6,1.6-1,2.4-1.5c0.5-0.1,0.9-0.4,1.2-0.8l0.1-0.1
			c0.3-0.2,0.6-0.5,0.9-0.7l0.2-0.1c0.4-0.5,1.2-0.5,1.6-1l0,0c0.3-0.2,0.7-0.5,1-0.7l0.2-0.1c0.4-0.6,1.3-0.4,1.7-1l0,0
			c0.3-0.2,0.6-0.5,1-0.7c0.1-0.3,0.3-0.4,0.6-0.3c0.5,0,0.9-0.4,1.2-0.8l0.2-0.1c0.5-0.5,1.3-0.3,1.7-1l0.1,0
			c0.5-0.5,1.4-0.2,1.8-1l0,0c0.3-0.2,0.7-0.4,1-0.6c0.2-0.3,0.4-0.4,0.8-0.3c0.5-0.1,0.8-0.4,1.2-0.6c0.2-0.3,0.4-0.4,0.8-0.3
			c0.7-0.4,1.6-0.1,2-0.9l0.1,0c0.6-0.4,1.4-0.2,1.9-0.8l0.1-0.1c0.5-0.5,1.3-0.3,1.9-0.8c0.2-0.3,0.4-0.4,0.7-0.2
			c0.7-0.3,1.5-0.2,2.1-0.8c0.2-0.3,0.4-0.3,0.7-0.2c0.7-0.3,1.5-0.2,2.2-0.7c0.3-0.1,0.6-0.1,0.9-0.2c1.2-0.9,2.8,0.2,3.9-0.9
			c0.2-0.3,0.5-0.3,0.7-0.1c6.1-0.5,12.3-0.6,18.4,0.1l0.1,0c0.3,0.3,0.5,0.7,0.8,1C464.2,269.9,464.3,270.1,464.1,270.4z"/>
		<path class="st14" d="M520.7,269.7c-0.4-4.8-1.3-9.5-1-14.3c0.1-1.7-0.2-3.5,0.8-5.1c1.4-1,2.9-1.3,4.5-1.3
			c17.7-0.1,35.5-0.2,53.2,0.1c0.8,0,1.6,0.2,2.3,0.4c2.7,1.1,1.4,2.9,0.4,4.2c-2.5,3.7-4.4,7.8-6.6,11.7
			c-4.2,7.6-10.7,11.7-19.2,13.6c-11.6,2.6-21.7-1.4-31.7-6.1C522.1,272.3,521.3,271,520.7,269.7z"/>
		<path class="st15" d="M703.8,309.1c-3.3-2.3-5.7-5.5-8.6-8.2c-3.9-3.7-8.2-7-13.1-9.4c-4.8-2.4-9.4-5.2-14.4-7.3
			c-5.1-2.1-10.4-3.7-15.9-4.8c-1.2-0.2-2.5-0.1-3.8-0.2c-2.9,0-5.7,0-8.6,0c-0.3-0.5-0.3-1-0.1-1.6c-0.5-2.6-0.7-5.3,0.1-7.9
			c0.6-1.5,2-1.5,3.2-1.5c3.3-0.2,6.7-0.3,10-0.1c7.2,0.4,14.1,2.2,20.7,5.2c7.9,3.6,15.2,7.9,21.7,13.6c0.3,0.3,0.6,0.6,1,0.8l0,0
			c0.2,0.5,0.4,0.8,1,0.8l0,0c0.2,0.6,0.8,0.7,1.1,1.1c0.4,0.4,0.9,0.6,1.4,1l0.2,0.2c0.3,0.2,0.6,0.5,0.8,0.7l0.2,0.1
			c0.3,0.3,0.6,0.5,0.9,0.8l0.1,0.1c0.3,0.3,0.6,0.6,0.9,0.9l0.1,0.1c0.3,0.3,0.6,0.6,0.9,0.9l0,0c0.3,0.4,0.6,0.7,0.9,0.9l0,0
			c0.3,0.4,0.6,0.7,0.9,0.9l0,0c0.3,0.4,0.6,0.7,0.9,0.9l0,0.1c0.3,0.3,0.5,0.6,0.9,0.9l0.1,0.1c0.3,0.3,0.5,0.6,0.8,0.9l0.1,0.1
			c0.3,0.3,0.5,0.5,0.8,0.8l0.1,0.2c0.6,0.4,0.3,1.4,1.2,1.5l-0.2,0.2l0.2-0.3c-0.1,0.7,0.3,0.9,0.9,1.1l0,0
			c0.1,0.5,0.5,0.8,0.9,1.1l0,0c0.2,0.3,0.5,0.7,0.8,1l0.1,0.2c0.3,0.2,0.5,0.5,0.7,0.8c0.3,0.1,0.5,0.3,0.4,0.6
			c0.1,0.6,0.4,1,0.9,1.3l0,0c0.3,0.3,0.5,0.7,0.8,1l0.1,0.2c0.6,0.4,0.4,1.3,1.1,1.7l0,0c0.2,0.3,0.5,0.7,0.7,1
			c0.3,0.1,0.4,0.3,0.3,0.5c0,0.6,0.4,1,0.8,1.4l0,0.1c0.5,0.5,0.3,1.4,1,1.8l0,0c0.2,0.4,0.4,0.7,0.7,1c0.3,0.1,0.4,0.4,0.3,0.7
			c0.1,0.5,0.4,0.8,0.7,1.2c0.3,0.1,0.4,0.3,0.3,0.6c0.1,0.5,0.4,0.9,0.7,1.3c0.3,0.1,0.4,0.3,0.3,0.6c0.1,0.5,0.4,0.9,0.7,1.3
			c0.3,0.2,0.4,0.4,0.3,0.7c0.4,0.7,0.2,1.6,0.9,2.1l0,0c0.5,0.6,0.3,1.4,0.8,1.9c0.3,0.1,0.4,0.4,0.2,0.6c0.3,0.7,0.2,1.6,0.8,2.2
			l0,0c0.8,0.8,0,2.1,1,2.9l0.2,0.2l-0.1,0.3c0.2,0.8,0.2,1.7,0.8,2.4c0.3,0.2,0.3,0.4,0.2,0.7c0.6,1,0,2.2,0.8,3.1
			c0.3,0.2,0.3,0.4,0.1,0.7c0.6,1,0.1,2.2,0.8,3.2c0.3,0.5,0.4,1,0.2,1.5c0.7,1.3-0.1,2.9,0.8,4.2c0.3,0.5,0.4,1.1,0.2,1.7
			c0.7,1.6,0.4,3.3,0.3,5c-0.1,1.5-1.1,1.7-2.3,1l0,0c-0.5-0.5-0.4-1.3-0.8-1.9c-0.3-0.2-0.4-0.5-0.2-0.8c-0.5-0.6-0.3-1.5-0.8-2
			l-0.3-0.2l0.1-0.3c0-0.5-0.4-0.9-0.7-1.3c-0.3-0.2-0.4-0.4-0.3-0.8c-0.4-0.7-0.2-1.6-1-2.1l0,0c-0.4-0.6-0.3-1.5-0.9-2l0,0
			c-0.5-0.6-0.3-1.5-1-1.9l0,0c-0.2-0.3-0.5-0.7-0.7-1c-0.3-0.2-0.4-0.4-0.3-0.7c-0.1-0.5-0.5-0.8-0.8-1.2l-0.1-0.1
			c0.2-8.4-5.7-13.9-9.7-20.3c-1.4-2.2-3-4.4-4.8-6.4l0,0C706.6,312.1,704.9,310.8,703.8,309.1z"/>
		<path class="st16" d="M520.7,269.7c1.9,1.5,4,2.6,6.3,3.3c2.3,0.7,4.5,1.7,6.6,2.8c3.5,1.8,7,2.6,11,2.7c4.3,0.1,8.6-0.3,12.8-1.2
			c5.7-1.3,10.6-4.3,14-9.2c1.2-1.7,2.2-3.5,3.1-5.3c2.1-4.3,4.5-8.4,7.5-12.1c0.2-0.4,0.4-0.4,0.8-0.3c0.3,2.8,0.7,5.7,0.9,8.5
			c0.4,5.8-0.2,11.5-2,17c-3,9.4-9.8,15.1-19.2,17.5c-6.4,1.6-12.9,2-19.4,0.4c-8.8-2.1-15.5-7.2-20.2-14.9
			C521.1,276.1,520.2,273.1,520.7,269.7z"/>
		<path class="st17" d="M338.5,479.8c-5.3-6.2-8.6-13.5-10.3-21.3c-4.7-21.3-0.3-40.5,13.8-57.3c4-4.8,8.7-8.9,14.4-11.6
			c0.3-0.1,0.8-0.2,0.9,0c2,4.1,0.6,14.2-2.2,17.5c-9.7,10.8-14,23.2-11.8,37.7c0.7,4.6-0.2,8.8-2.7,12.8c-2.5,5.3-2.1,10.7-1,16.2
			C340,475.8,341.6,478.3,338.5,479.8z"/>
		<path class="st17" d="M744.3,398.2c0-2.8,0-5.6,0-8.4c0.1-0.5,0.5-0.8,0.9-1c0.2,0,0.4,0,0.6,0.1c0.5,0.1,0.9,0.4,1.3,0.7
			c7.8,3.8,14.1,9.5,18.7,16.7c13.1,20.2,15.7,41.5,6,63.8c-1.3,3.1-3.2,5.9-4.9,8.8c-3.1-1.4-1.8-4-1.5-6.2
			c0.7-5.8,0.8-11.5-2.2-16.8c-2.1-3.1-2.4-6.4-1.8-10c2.3-14-2.1-26.3-10-37.6c-1.7-2.4-4.7-3.3-6.3-5.6
			C744.2,401.2,744.9,399.6,744.3,398.2z"/>
		<path class="st3" d="M371,806.1c-5.8-2.8-10.7-6.9-15.8-10.6c-1.1-0.8-1.7-1.9-1.7-3.3c0-0.8,0-1.6,0-2.4c0-14.7,0-29.3,0-44
			c0-1.6-1-4,1-4.7c1.5-0.5,2.3,1.8,3.4,2.9c1.9,1.9,3.7,4,5.5,5.9c9.7,7,11.3,16.7,11.2,28.1c-0.1,7.5-1,15.1,0.3,22.7
			C375.3,803.2,375.5,806.7,371,806.1z"/>
		<path class="st18" d="M339.3,456.9c2.9-4.2,3.5-8.7,2.3-13.6c-0.8-3.8-0.8-7.6,0-11.4c0.8-3.7,1.5-7.4,2.9-11
			c2.3-5.9,5.5-11.1,10.1-15.4c2-1.9,3.1-3.9,2.8-6.7c-0.2-2.2,0-4.5-0.1-6.7c0-1-0.2-1.9-1.1-2.5c1.6-1,2.1-0.9,2.1,0.5
			c0,1.3,0,2.5,0,3.8c0,26.1,0,52.2,0,78.3c0,1.3-0.1,2.5-0.1,3.8c-1.6,1.2-2.7,0-3.8-0.9C348.7,469.8,343.6,463.6,339.3,456.9z"/>
		<path class="st19" d="M744.9,745.2c0.9-1.3,1.7-2.7,2.6-4c0.2-0.3,0.9-0.5,1.2-0.4c0.4,0.1,0.8,0.6,0.9,1c0.2,1.1,0.3,2.2,0.3,3.3
			c0,14.8,0,29.6,0.1,44.4c0,3.4-1.1,5.6-4,7.4c-4.9,2.8-9.7,6-14.5,9.1c-2.4-0.5-2-2.6-2.1-4.2c-0.4-9.9,0.1-19.8-0.6-29.7
			c-0.5-7.8,3.6-13.7,9.7-18.3C741.5,751.6,743.9,749,744.9,745.2z"/>
		<path class="st20" d="M524.2,634.4c-5.9-3.5-9.3-9-12.1-15.1c-0.3-0.6-0.3-1.2-0.4-1.9c0-0.9,0.5-1.5,1.3-1.8
			c1.4-0.6,2.8-0.4,4.3-0.4c10.1-0.1,20.1-0.1,30.2-0.1c6.1,0,12.1-0.1,18.2,0c2.6,0,5.1,0.2,7.7,0.2c3.8,1.2,1.9,3.4,0.6,5
			c-2.9,3.7-6.9,6.1-11.1,8.1c-7.6,3.8-15.6,6.1-24.2,6.3C533.9,634.7,529,636.9,524.2,634.4z"/>
		<path class="st21" d="M518.5,594.1c5.7-0.1,11.5-0.6,17.1,0.7c1.2,0.3,2.5,0.1,3.8,0.1c16,0,31.9,0,47.9,0c1.4,0,2.9,0,4.3,0.1
			c1.5,0.1,2.5,1,2.6,2.3c0.1,2.9,0.2,5.7,0,8.6c-0.1,1.8-1.6,3.2-3.5,3.4c-1.4,0.1-2.9,0.1-4.3,0.1c-11.3,0-22.7,0-34,0
			c-1.9,0-3.8-0.1-5.7,0.6c-0.9,0.3-1.9,0.3-2.8,0.3c-9.7,0-19.5-0.1-29.2-0.1c0-1.4,1-1.6,2-1.9c8.6-0.5,17.1,0,26.5-0.3
			c-5.7-4.5-12.1-5.9-18.1-8C522.2,598.9,519.1,597.9,518.5,594.1z"/>
		<path class="st22" d="M524.2,634.4c6.1,0.4,12-1,18.1-1.2c4.5-0.2,9.1-1.5,13.4-3.1c5-1.8,9.6-4.3,13.9-7.3
			c1.7-1.2,3.2-2.6,4.4-4.3c0.3-0.5,0.7-1.2,0.5-1.7c-0.1-0.5-0.8-0.9-1.2-1.4c5.4-0.1,10.8-0.2,16.2-0.2c0.6,0,1.3,0.1,1.9,0.2
			c1.4,0.3,2.1,1.5,1.4,2.9c-7,14.4-17.4,24.1-34,25.9c-6.6,0.7-13.1,0.5-19.4-1.2C533.7,641.3,528.4,638.8,524.2,634.4z"/>
		<path class="st23" d="M744.9,745.2c1,3.9-0.9,6.5-3.9,8.4c-2.6,1.7-4.7,3.8-6.7,6c-2.1,2.2-3.6,4.8-3.7,8.1c0,1.1-0.4,2.2-0.6,3.3
			c-0.1,0.8-0.3,1.7-0.1,2.3c1,3,0.7,6,0.7,9c0.1,6.5,0,13.1,0,19.6c0,1.4-0.4,2.9,0.8,4.1c-4,3.6-8.6,6.2-13.4,8.7
			c-3.1,0.7-3.2-1.8-3.1-3.5c0.3-15-1.7-29.9-1.1-44.9c0.1-1.6,0.3-3.2,1.6-4.4c2.7-1,5.4-1.9,8.1-2.9c7.3-2.9,13.9-6.9,19.6-12.4
			C743.6,746.1,744.3,745.7,744.9,745.2z"/>
		<path class="st24" d="M396.5,682.2c0,13.7,0,27.5-0.1,41.2c-1.9,1.7-3.7,0.5-5.2-0.4c-6.4-3.8-12.5-3.9-18.5,0.7
			c-1.1,0.8-2.4,1.5-3.9,1.2c-5.5-8.4-7.1-17.4-3.9-27.1c6.9,0.4,11.5-3.4,15.7-8.2c2.9-3.4,6.8-5.8,11-7.3
			C393.2,681.7,394.9,680.8,396.5,682.2z"/>
		<path class="st25" d="M371,806.1c1.6-0.3,2.6-1.1,2.7-2.8c0.1-1.6,0.2-3.2-0.3-4.7c-0.9-3-0.8-6,0-8.9c0.4-1.4,0.6-2.9,0.3-4.2
			c-1.4-6.3-0.7-12.6-0.8-19c-0.1-3.4-1.4-6.1-3.6-8.6c-1.1-1.2-2.2-2.3-3.4-3.4c-1.3-1.2-2.3-2.6-2.6-4.4c0.6,0.3,1.2,0.5,1.7,0.8
			c5.8,3.9,12.1,6.9,18.7,9.3c1.5,0.5,2.9,1.2,4.4,1.8c1.6,1.7,1.6,3.8,1.6,5.8c0,14,0.1,28,0,42c0,2,0.1,4.2-1.5,5.8
			c-0.3,0-0.6-0.1-1-0.1c-0.3-0.2-0.6-0.4-1-0.5C380.9,812.4,375.8,809.6,371,806.1z"/>
		<path class="st26" d="M739.3,697.5c2.5,10.1,1.3,19.6-5,28.2c-1.9,0-3.2-1.3-4.5-2.4c-4.9-4.1-10.1-3.8-15.6-1.3
			c-2,0.9-3.9,3-6.6,1.5c-0.1-6.8-0.2-13.7-0.2-20.5c-0.1-6.8-0.1-13.7-0.2-20.5c1.4-1.5,3-0.6,4.5-0.2c6.2,1.5,10.9,5.1,14.6,10.1
			c2.8,3.9,1.8,6.5-2.8,7.5c-2.8,0.6-4.8,1.7-4.6,4.9c0.1,2.5,1.6,3.7,4,3.9c3.3,0.2,4.8-1.7,5.5-4.7
			C729.7,697.6,732.8,695.9,739.3,697.5z"/>
		<path class="st27" d="M582.7,250.3c-0.3-0.1-0.6,0-0.8,0.3c-3,0-6-0.1-9-0.1c-17.5,0-34.9-0.1-52.4-0.1c-0.5-2.9-0.3-5.7,0-8.6
			c0.2-2.2,1.4-3.5,3.5-4c1.4-0.3,2.8-0.5,4.2-0.6c15.2-0.4,30.3-0.7,45.5,0.1c2.2,0.1,4.5,0.4,6.7,0.7c2.1,0.3,2.8,1.2,2.7,3.2
			C583,244.2,582.8,247.3,582.7,250.3z"/>
		<path class="st28" d="M744.3,398.2c1.1,1.1,0.6,2.6,0.9,3.9c1.3,2.3,1.2,4.9,1.2,7.5c0,19.8,0,39.5,0,59.3c0,1.7-0.3,3.5,0.7,5.6
			c5.7-4.1,9.9-9,12.9-15.1c0.9-1.8,1.1-4.6,4.2-4.4c3.8,5.6,3.1,11.8,2.4,18.1c-0.2,1.4-0.4,2.8-0.6,4.3c-0.1,0.7,0.4,1.2,1,1.5
			c-4,5.4-8.8,10-14.3,13.8c-1.3,0.9-2.7,1.6-4.2,2.3c-2.7,1.3-3.8,0.8-4.1-2.1c-0.1-1.1-0.1-2.2-0.1-3.3c0-29.8-0.1-59.6-0.1-89.4
			C744.1,399.4,744.2,398.8,744.3,398.2z"/>
		<path class="st29" d="M739.3,697.5c-2.5,0.5-5,0.9-7.5,1.5c-1.6,0.4-2,1-2.2,2.7c-0.1,1.3,0,2.6-0.3,3.8c-1,4.4-6,6.3-9.8,3.8
			c-2.3-1.5-2.6-3.9-2.4-6.4c0.3-2.3,1.7-3.8,3.9-4.4c1.5-0.4,3.2-0.4,4.7-0.5c0.9-0.1,1.4-0.9,1.1-1.7c-0.5-1.7-1.3-3.3-2.5-4.6
			c-4.2-4.6-9-8.1-15.4-8.9c-0.6-0.1-1.2-0.3-1.9-0.4c-0.7-3.3-1.5-6.5-2.2-9.8c-0.5-2.1,0.4-3,2.6-2.7c1.9,0.3,3.8,0.6,5.6,1.2
			c11.3,3.8,19.6,11.1,24.8,21.8C738.7,694.4,739.5,695.8,739.3,697.5z"/>
		<path class="st30" d="M388.2,815.5c0-17.9,0-35.7-0.1-53.6c1.8,0,3.5-0.1,5.3,0c2.4,0.1,3.2,0.8,3.6,3c0.3,1.7,0.5,3.5,0.5,5.2
			c0.1,15,0.1,30,0.1,44.9c0,1,0,1.9-0.2,2.9c-0.4,2.2-1.4,2.7-3.4,1.6C391.9,818.4,389.8,817.3,388.2,815.5z"/>
		<path class="st31" d="M715.4,762c0,7.2-0.3,14.3,0.2,21.5c0.6,9.2,0.4,18.4,0.6,27.6c0,0.8,0,1.6,0.1,2.4c0.1,1,1,1.1,1.8,1.2
			c-1.8,1.2-3.6,2.5-5.5,3.7c-0.5,0.3-1.1,0.7-1.7,0.9c-3.5,1.1-4.2-0.3-4.2-3c0.1-10.7,0.1-21.4,0.1-32.1c0-4.8,0-9.6,0-14.4
			c0-1.9,0.2-3.8,0.7-5.7c0.4-1.4,1.2-2.2,2.7-2.3C711.9,761.8,713.7,761.9,715.4,762z"/>
		<path class="st32" d="M339.3,456.9c2.2,0.9,3.4,2.8,4.6,4.6c3.4,4.8,7.4,9,11.6,13.1c0.8,0.8,1.6,1.6,2.9,1.4c0,6.2,0,12.4,0,18.6
			c0,0.3-0.2,0.5-0.3,0.8c-6.3-1.7-15-8.6-19.7-15.6c1.1-1.1,0.8-2.2,0.4-3.5c-1-2.9-1.4-5.8-1.6-8.8
			C337.1,463.8,337.7,460.2,339.3,456.9z"/>
		<path class="st33" d="M396.5,682.2c-7.6,1.6-13.8,5.3-18.3,11.6c-3.5,4.8-7.8,6-13.3,4c0.1-3.5,1.6-6.5,3.3-9.4
			c6.6-10.7,16.2-16.9,28.7-18.6c0.5-0.1,1,0,1.4,0.1c0.1,0,0.3,0.2,0.6,0.4C398.8,674.4,398.3,678.4,396.5,682.2z"/>
		<path class="st34" d="M368.9,724.9c1.3-0.9,2.7-1.8,3.9-2.7c5.4-4,11.1-4.6,17-1.3c1.1,0.6,2.3,1.1,3.4,1.7c1,0.5,2.1,0.8,3.2,0.7
			c0.5,4.7,0.2,9.5,0.2,14.3c0,3.1-1.7,4.2-4.7,3.5c-6.3-1.4-11.9-4.4-16.6-8.8C373.1,730.1,370.5,727.9,368.9,724.9z"/>
		<path class="st35" d="M707.5,723.5c1.8-0.3,3.2-1.3,4.8-2c1.3-0.6,2.6-1.2,3.9-1.7c5.4-2.1,10.2-0.9,14.5,2.8
			c1.2,1,2.4,2.1,3.5,3.1c-5.3,8.6-13.3,13.4-23,15.5c-0.6,0.1-1.2,0.3-1.9,0.3c-0.9,0-1.6-0.4-1.7-1.3c-0.1-0.9-0.2-1.9-0.2-2.8
			C707.5,732.8,707.5,728.1,707.5,723.5z"/>
		<path class="st36" d="M518.5,594.1c0.4,0.3,1,0.5,1.1,0.9c0.5,1.8,1.8,2.3,3.3,2.8c3.6,1.2,7.2,2.5,10.8,3.6c3.2,1,6.1,2.7,9,4.2
			c1.2,0.7,2.4,1.5,3,2.9c-0.1,0.2-0.1,0.3-0.2,0.5c-0.1,0.1-0.2,0.2-0.4,0.2c-9.5,0-19,0-28.6,0c-0.3-5-1.7-10.1,0-15.1
			C517.3,594.1,517.9,594.1,518.5,594.1z"/>
		<path class="st37" d="M516.7,594.1c0.1,1.4,0.1,2.9,0.5,4.3c0.8,3.7,0.7,7.3-0.4,10.8c-0.6,0.3-1.2,0.6-1.9,0.9
			c-0.8-0.1-1.6-0.1-2.3-0.3c-1.3-0.4-2.3-1.4-2.3-2.7c0-3.5,0.2-6.9,0.4-10.4c0-0.8,0.4-1.5,1.2-1.9c0.8-0.7,2-0.1,2.9-0.8
			C515.4,594.1,516,594.1,516.7,594.1z"/>
		<path class="st38" d="M707.6,313.9c2.5,1.1,3.5,3.6,4.9,5.6c3.3,4.6,6.5,9.3,9,14.4c1.1,2.3,1.5,4.4,0.5,6.7
			c-0.7-0.3-1-0.8-1.1-1.5c0.4-2-0.1-3.7-1-5.5c-2.5-5-5.8-9.5-9-14C709.6,317.7,708,316.2,707.6,313.9z"/>
		<path class="st38" d="M729.7,357c1-0.2,1.8-0.6,1.9-1.8c0.1-1.4,0.1-2.8,0.1-4.3c1.3,3.5,0.8,7.2,1.1,10.9c0,0.4-0.2,1.1-0.5,1.2
			c-0.8,0.4-1.1-0.4-1.2-1C730.5,360.4,730.1,358.7,729.7,357z"/>
		<path class="st11" d="M463,268.7c-6.1,0-12.3,0-18.4-0.1c0.9-0.7,2.1-0.7,3.1-0.8c4.9-0.4,9.7-0.1,14.6,0.3
			C462.6,268.1,462.8,268.5,463,268.7z"/>
		<path class="st12" d="M639.5,269.9c0,2.6-0.1,5.3-0.1,7.9C638.8,275.1,637.9,272.5,639.5,269.9z"/>
		<path class="st38" d="M731.5,349.3c-1.4-1.2-0.8-2.8-0.8-4.2C731.7,346.4,731.6,347.9,731.5,349.3z"/>
		<path class="st4" d="M383.4,383.9c-1.1,1.4-2.5,0.9-3.9,0.9C380.6,383.4,382.1,384,383.4,383.9z"/>
		<path class="st11" d="M443.8,268.8c-1,1.4-2.5,1-3.9,0.9C441.1,268.6,442.4,268.7,443.8,268.8z"/>
		<path class="st38" d="M730.5,343.6c-1.1-0.9-0.8-2-0.8-3.2C730.6,341.3,730.6,342.4,730.5,343.6z"/>
		<path class="st36" d="M514.8,594.1c-0.8,0.9-1.8,0.9-2.9,0.8C512.7,593.8,513.7,593.9,514.8,594.1z"/>
		<path class="st38" d="M729.7,339.8c-1.2-0.8-0.9-2-0.8-3.1C729.7,337.5,729.8,338.6,729.7,339.8z"/>
		<path class="st38" d="M727.8,333c-1.1-0.7-0.9-1.8-1-2.9C727.6,331,727.9,332,727.8,333z"/>
		<path class="st11" d="M423.6,276.3c-0.3,0.9-1,1.1-1.8,1C422.1,276.5,422.8,276.3,423.6,276.3z"/>
		<path class="st11" d="M421.7,277.4c-0.3,0.8-0.9,1-1.7,1C420.3,277.6,420.9,277.3,421.7,277.4z"/>
		<path class="st11" d="M416.9,280.2c-0.3,0.8-0.9,1-1.7,1C415.6,280.6,416.1,280.2,416.9,280.2z"/>
		<path class="st11" d="M414,282.1c-0.3,0.8-0.9,1.1-1.6,1C412.7,282.5,413.2,282.1,414,282.1z"/>
		<path class="st12" d="M698.1,290c-0.5-0.3-0.8-0.7-0.8-1.3c0.8,0.1,1.2,0.5,1.5,1.2l-0.3,0.4L698.1,290z"/>
		<path class="st38" d="M698.1,290c0.2,0,0.5-0.1,0.7-0.1c0.5,0.1,0.9,0.4,1,0.9C699.1,290.8,698.5,290.7,698.1,290z"/>
		<path class="st38" d="M710.8,302.1c-1-0.1-1.2-0.7-1.2-1.5C710.3,300.8,710.6,301.4,710.8,302.1z"/>
		<path class="st38" d="M717.3,310.9c-0.8-0.3-1-0.9-1.1-1.7C716.9,309.6,717.3,310.2,717.3,310.9z"/>
		<path class="st38" d="M720.2,315.7c-0.9-0.3-1-1-1-1.8C719.9,314.3,720.2,314.9,720.2,315.7z"/>
		<path class="st38" d="M724.9,325.3c-0.9-0.4-1-1.3-0.9-2.1C724.8,323.7,725,324.5,724.9,325.3z"/>
		<path class="st38" d="M725.7,327.3c-0.7-0.5-0.9-1.2-0.8-1.9C725.6,325.8,725.8,326.5,725.7,327.3z"/>
		<path class="st38" d="M726.8,330.2c-0.9-0.5-0.9-1.4-0.8-2.2C726.7,328.5,726.9,329.3,726.8,330.2z"/>
		<path class="st11" d="M433.3,271.8c-0.4,0.7-1.1,0.9-1.9,0.8C431.8,271.8,432.5,271.7,433.3,271.8z"/>
		<path class="st38" d="M728.6,335.9c-0.9-0.6-0.8-1.5-0.8-2.4C728.6,334.2,728.7,335,728.6,335.9z"/>
		<path class="st38" d="M723.8,343.7c0.9,0.4,1,1.1,1,1.9C724.1,345.1,723.8,344.5,723.8,343.7z"/>
		<path class="st38" d="M724.8,345.6c0.8,0.4,1,1.1,0.9,2C725,347.1,724.8,346.4,724.8,345.6z"/>
		<path class="st38" d="M725.7,347.5c0.9,0.4,1,1.2,1,2.1C726,349.1,725.7,348.3,725.7,347.5z"/>
		<path class="st38" d="M727.8,352.2c0.8,0.5,0.9,1.2,0.8,2C728,353.8,727.7,353.1,727.8,352.2z"/>
		<path class="st38" d="M728.9,355.1c0.7,0.5,0.8,1.1,0.8,1.9C729.1,356.5,728.8,355.9,728.9,355.1z"/>
		<path class="st11" d="M439,269.8c-0.5,0.8-1.3,0.9-2.2,0.7C437.4,269.8,438.2,269.7,439,269.8z"/>
		<path class="st11" d="M436.1,270.7c-0.5,0.8-1.3,0.9-2.1,0.8C434.5,270.8,435.3,270.7,436.1,270.7z"/>
		<path class="st11" d="M431.3,272.6c-0.4,0.8-1.1,1-1.9,0.8C429.8,272.6,430.5,272.6,431.3,272.6z"/>
		<path class="st5" d="M433.4,836.7c0.8-0.1,1.4,0.1,1.8,0.8C434.4,837.7,433.8,837.4,433.4,836.7z"/>
		<path class="st11" d="M429.3,273.5c-0.4,1-1.2,1.1-2,0.9C427.8,273.6,428.5,273.4,429.3,273.5z"/>
		<path class="st11" d="M411.1,284.1c-0.2,0.5-0.6,0.8-1.2,0.8C410.2,284.4,410.6,284.1,411.1,284.1z"/>
		<path class="st11" d="M412.1,283.3c-0.1,0.4-0.5,0.7-0.9,0.7C411.3,283.5,411.6,283.3,412.1,283.3z"/>
		<path class="st11" d="M415,281.4c-0.2,0.5-0.5,0.7-1,0.7C414.1,281.5,414.5,281.3,415,281.4z"/>
		<path class="st11" d="M417.9,279.5c-0.2,0.4-0.5,0.7-1,0.7C417,279.6,417.4,279.5,417.9,279.5z"/>
		<path class="st11" d="M419.8,278.4c-0.2,0.5-0.7,0.8-1.2,0.8C418.8,278.6,419.2,278.4,419.8,278.4z"/>
		<path class="st11" d="M424.6,275.7c-0.2,0.4-0.5,0.7-1,0.6C423.7,275.7,424.1,275.6,424.6,275.7z"/>
		<path class="st11" d="M426.5,274.7c-0.2,0.5-0.6,0.7-1.2,0.6C425.6,274.8,426,274.6,426.5,274.7z"/>
		<path class="st11" d="M463.9,269.7c-0.3-0.3-0.5-0.7-0.8-1C463.7,268.8,464,269.1,463.9,269.7z"/>
		<path class="st38" d="M722.1,340.7c0.3,0.4,0.5,0.8,0.8,1.2C722.3,341.7,722.1,341.3,722.1,340.7z"/>
		<path class="st38" d="M721.9,318.6c-0.2-0.4-0.5-0.8-0.7-1.2C721.7,317.7,721.9,318.1,721.9,318.6z"/>
		<path class="st38" d="M722.8,320.6c-0.2-0.4-0.5-0.9-0.7-1.3C722.7,319.5,722.9,320,722.8,320.6z"/>
		<path class="st38" d="M727,350.3c0.2,0.4,0.4,0.9,0.7,1.3C727.1,351.4,726.9,350.9,727,350.3z"/>
		<path class="st38" d="M720.8,316.7c-0.2-0.3-0.5-0.7-0.7-1C720.7,315.8,720.9,316.2,720.8,316.7z"/>
		<path class="st38" d="M723.2,342.7c0.2,0.3,0.4,0.7,0.7,1C723.3,343.5,723.1,343.2,723.2,342.7z"/>
		<path class="st38" d="M723.7,322.5c-0.2-0.4-0.4-0.8-0.7-1.3C723.6,321.5,723.8,321.9,723.7,322.5z"/>
		<path class="st38" d="M719.1,313.8c-0.5-0.3-0.8-0.8-0.8-1.4C718.9,312.7,719.1,313.2,719.1,313.8z"/>
		<path class="st38" d="M718,311.9c-0.2-0.3-0.5-0.7-0.7-1C717.8,311,718.1,311.4,718,311.9z"/>
		<path class="st38" d="M715.3,308c-0.5-0.3-0.8-0.7-0.9-1.3C715,307,715.3,307.4,715.3,308z"/>
		<path class="st38" d="M714,306.1c-0.2-0.3-0.4-0.5-0.7-0.8C713.8,305.4,714.1,305.7,714,306.1z"/>
		<path class="st38" d="M716.1,309.1c-0.3-0.3-0.5-0.7-0.8-1C715.9,308.2,716.1,308.5,716.1,309.1z"/>
		<path class="st28" d="M745.2,388.8c-0.3,0.3-0.6,0.6-0.9,1C744,389,744.3,388.6,745.2,388.8z"/>
		<path class="st38" d="M713.3,305.2c-0.3-0.3-0.5-0.7-0.8-1C713,304.3,713.3,304.6,713.3,305.2z"/>
		<path class="st28" d="M747,389.6c-0.6,0.1-1-0.1-1.3-0.7C746.4,388.7,746.8,389,747,389.6z"/>
		<path class="st38" d="M712.5,304.2c-0.5-0.2-0.8-0.5-0.9-1.1C712.2,303.3,712.4,303.6,712.5,304.2z"/>
		<path class="st38" d="M711.6,303.2c-0.6-0.1-0.9-0.5-0.9-1.1C711.3,302.2,711.6,302.6,711.6,303.2z"/>
		<path class="st38" d="M709.4,300.4c-0.3-0.3-0.5-0.6-0.8-0.8C709.1,299.6,709.4,299.9,709.4,300.4z"/>
		<path class="st38" d="M708.5,299.4c-0.3-0.3-0.6-0.6-0.8-0.9C708.2,298.6,708.5,298.9,708.5,299.4z"/>
		<path class="st38" d="M707.6,298.5c-0.3-0.3-0.6-0.6-0.9-0.9C707.3,297.6,707.6,297.9,707.6,298.5z"/>
		<path class="st38" d="M706.7,297.5c-0.3-0.3-0.6-0.6-0.9-0.9C706.3,296.6,706.6,296.9,706.7,297.5z"/>
		<path class="st38" d="M705.7,296.5c-0.3-0.3-0.6-0.6-0.9-0.9C705.4,295.7,705.7,296,705.7,296.5z"/>
		<path class="st38" d="M704.8,295.6c-0.3-0.3-0.6-0.6-0.9-0.9C704.4,294.7,704.7,295,704.8,295.6z"/>
		<path class="st38" d="M703.8,294.6c-0.3-0.3-0.6-0.6-0.9-0.9C703.4,293.8,703.7,294.1,703.8,294.6z"/>
		<path class="st38" d="M702.8,293.6c-0.3-0.3-0.6-0.6-0.9-0.9C702.5,292.8,702.8,293.1,702.8,293.6z"/>
		<path class="st38" d="M701.8,292.7c-0.3-0.3-0.6-0.5-0.9-0.8C701.5,291.9,701.8,292.2,701.8,292.7z"/>
		<path class="st38" d="M700.8,291.7c-0.3-0.2-0.5-0.5-0.8-0.7C700.5,291,700.8,291.2,700.8,291.7z"/>
		<path class="st30" d="M386.2,814.9c0.5-0.2,0.8,0,1,0.5C386.7,815.6,386.4,815.5,386.2,814.9z"/>
		<path class="st12" d="M697.2,288.7c-0.6,0-0.9-0.3-1-0.8C696.8,287.9,697.1,288.1,697.2,288.7z"/>
		<path class="st12" d="M696.2,287.8c-0.5,0-0.8-0.3-1-0.8C695.8,287,696.1,287.3,696.2,287.8z"/>
		<path class="st39" d="M640.3,384.6c26.5-0.4,50.7,17.6,57.2,44.4c6.9,28.8-7.1,57.9-33.1,69.3c-20.4,9-45.5,6.1-64.1-11.3
			c-8.7-8.2-14.9-18-17.4-29.7c-4.4-20.3,0.6-38.4,14.5-53.8C608.7,390.9,623.3,384.8,640.3,384.6z"/>
		<path class="st2" d="M465.2,503.2c-29.2-0.1-53.6-19.1-59.3-47c-6.8-33.2,15-64.6,46.9-70.6c32-6.1,60,15.4,67.3,42.7
			c8.2,30.8-10.2,64.4-41.5,72.9C473.7,502.7,468.6,503.2,465.2,503.2z"/>
		<path class="st40" d="M551.1,533.7c-5.9,0-11.8,0-17.7,0c-1.1,0-2.2,0-3.3,0c-5.9-0.3-9.6-3.9-9.8-9.6c-0.2-5.8,3.5-10.2,9.2-10.8
			c3.2-0.3,6.4-0.3,9.6-0.3c10.2,0,20.4,0,30.6,0.1c1.7,0,3.5,0,5.2,0.3c5,0.9,8.5,4.7,8.8,9.4c0.3,4.8-3.1,9.1-8.2,10.4
			c-1.4,0.3-2.8,0.4-4.3,0.4c-6.7,0-13.4,0-20.1,0C551.1,533.6,551.1,533.7,551.1,533.7z"/>
		<path class="st41" d="M618.3,746.6c0,34.2-20.1,60.8-49.9,68.4c-25.2,6.4-46.8-0.6-64.5-19.2c-12.5-13.1-19-29-18.7-47.3
			c0.2-16.5,6.3-30.8,17.4-43c10.5-11.5,23.5-18.6,38.8-21.2c29.9-5,56.7,10.5,69.4,34.5C615.8,728.5,618.3,738.8,618.3,746.6z"/>
		<path class="st42" d="M659.3,770.1c0,12.3,0,24.6,0,36.9c0,1.9-0.2,3.9-0.6,5.7c-1.1,4.6-4.8,7.3-9.5,7.2
			c-4.4-0.1-7.7-2.9-8.7-7.5c-0.3-1.5-0.5-3.2-0.5-4.8c0-24.1,0-48.2,0-72.3c0-2.2,0.1-4.5,0.6-6.7c1.4-6.6,8.5-9.5,14.3-5.9
			c2.1,1.3,3.5,3.3,3.9,5.8c0.3,2,0.4,4.1,0.4,6.2c0,10.2,0,20.4,0,30.7C659.2,766.9,659.2,768.5,659.3,770.1
			C659.2,770.1,659.3,770.1,659.3,770.1z"/>
		<path class="st43" d="M444.7,751.4c0-6.2,0-12.5,0-18.7c0-1.8,0.1-3.5,0.7-5.2c1.3-3.4,3.5-5.7,7.2-6.1c4.1-0.4,7.6,0.7,9.9,4.4
			c1.3,2.1,1.7,4.5,1.7,6.9c0,5.8,0.1,11.5,0.1,17.3c0,6.9-0.2,13.7-0.2,20.6c0,2.3-0.2,4.5-1.2,6.5c-1.6,3.3-3.9,5.9-8,5.9
			c-4.3,0-7.2-2.2-9.1-5.9c-0.9-1.9-1.2-4-1.2-6.1C444.7,764.5,444.7,758,444.7,751.4C444.7,751.4,444.7,751.4,444.7,751.4z"/>
		<path class="st44" d="M682.7,695.7c-1.2,0-2,0.7-2.8,1.6c-1.5,1.6-2.6,1.8-4.1,0.5c-1.7-1.5-3.4-2.3-5.6-2
			c-0.8-11.2-3.6-21.5-10.7-30.6c-5.4-6.9-11.9-12.3-19.7-16.3c-1.6-0.8-3.2-1.5-4.7-2.4c-1.7-1.1-2-4.9-0.6-6.5
			c0.7-0.8,1.7-1,2.6-0.8c1.7,0.5,3.4,1,5,1.7c8.5,3.9,16.1,9.1,22.4,16c2.3,2.6,4.6,5.4,6.2,8.4c2.9,5.5,6.1,10.8,7.5,17
			c0.7,3.2,1.7,6.4,2.4,9.7C680.9,693.7,681.8,694.6,682.7,695.7z"/>
		<path class="st45" d="M636.1,685.1c-6.2,0-10.8-4.6-10.8-10.9c0-6.5,4.4-11.3,10.4-11.4c6.3-0.1,11.7,5.3,11.6,11.5
			C647.2,680.2,642.1,685.1,636.1,685.1z"/>
		<path class="st46" d="M457.3,673.6c0.1-6.2,4.9-10.9,11-10.8c6.1,0.1,10.8,4.9,10.8,11c0,6.2-4.8,11.1-10.8,11.1
			C461.9,684.9,457.2,680.1,457.3,673.6z"/>
		<path class="st47" d="M454.3,819.6c-5.3,0-9.5-4.2-9.5-9.3c0.1-5.2,4.7-9.7,9.9-9.7c5.2,0,9,3.9,9.1,9.2
			C463.9,815.2,459.6,819.6,454.3,819.6z"/>
		<path class="st48" d="M552.2,125.8c8.3,0,14.4,6.5,14.3,15.2c-0.1,8.3-6.7,15.3-14.6,15.3c-8.2,0-14.9-6.9-14.9-15.5
			C537,132.3,543.5,125.8,552.2,125.8z"/>
		<path class="st49" d="M444,291.5c4.5,0,7.7,3.3,7.6,8c-0.1,4.6-3.4,7.7-8,7.7c-4.5-0.1-8.2-3.5-8.1-7.7
			C435.5,295.1,439.4,291.5,444,291.5z"/>
		<path class="st50" d="M658.1,307.3c-5.1,0.3-8.3-4.2-8.1-8.1c0.1-4.5,3.3-7.8,7.9-7.9c4.7-0.1,8.4,3.7,8.4,8.5
			C666.3,304.3,663.1,307.3,658.1,307.3z"/>
		<path class="st38" d="M703.8,309.1c1.8,1.2,3.6,2.4,3.8,4.8C705.8,312.7,704,311.5,703.8,309.1z"/>
		<path class="st51" d="M538.7,259.1c0.1,3-1.6,4.9-4.5,5c-3.4,0.1-5.2-1.9-5.6-5.2c-0.3-2.7,1.7-4.6,4.8-4.6
			C536.6,254.3,538.6,256.1,538.7,259.1z"/>
		<path class="st52" d="M764.2,455c-1.3,0.3-1.6,1.4-2,2.4c-2.8,7.8-8.1,13.7-14.3,18.8c-0.4,0.3-0.8,0.5-1.2,0.8
			c-0.6,0.4-1.4,0-1.4-0.6c0-1.4-0.1-2.9-0.1-4.3c0-20,0-39.9,0-59.9c0-3.3,0-6.7,0-10c0.8,0.4,1.7,0.9,2.5,1.3
			c2.1,1,3.6,2.5,4.9,4.4c4.1,5.9,7.4,12.3,9.1,19.3c1.6,6.2,2.3,12.5,0.8,18.8C761.8,449.1,761.9,452.3,764.2,455z"/>
		<path class="st53" d="M385.4,704.2c0,3-1.6,5.2-4.4,6.1c-2.6,0.8-5.5-0.1-7.2-2.3c-1.4-1.9-1.6-5.2-0.4-7.2
			c1.5-2.3,3.6-2.7,7.7-2.1c2.6,0.4,4,2.3,4.2,5C385.4,703.8,385.4,704,385.4,704.2z"/>
		<path class="st54" d="M606.8,460.7c-4.5-7.5-5.6-15.6-3.7-24c3.3-14.3,11.4-24.7,25.7-29c11.7-3.6,23.1-2.2,33.4,5
			c2,1.4,3.8,2.9,5.2,4.9c2.5,4,2.8,8.1,0.7,12.3c-1.8,3.5-1,7.2-1.2,10.8c-0.8,11-4.7,20.2-15.5,25c-4.9,2.2-10,3-15.4,2.2
			c-7.4-1.1-14.6-3.3-22.2-3.3C610.6,464.7,608.4,463.1,606.8,460.7z"/>
		<path class="st55" d="M606.8,460.7c3,2,6.2,3.3,9.9,2.8c3.1-0.4,6,0.7,9,1.1c4.2,0.6,8.4,1.6,12.6,2.5c0.5,0.1,1,0.2,1.4,0.1
			c6.3-0.7,12.2-2.2,17.2-6.4c3.1-2.6,5.1-6.1,6.5-9.9c1.3-3.7,2.4-7.6,2.1-11.7c-0.1-1.9,0-3.8,0-5.8c0-1.4,0.3-2.7,1.2-4
			c1.5-2.1,2.3-4.6,1.2-7.2c-0.6-1.5-0.4-3.1-0.5-4.7c4.5,3.1,7.3,7.5,8.8,12.7c1.4,4.6,2.5,9.3,2.4,14.1c0,11.6-4.3,21.5-13.3,29
			c-7.2,6-15.6,9.5-25.1,9c-13-0.6-23.6-6.2-31.1-17.1C608,464,607,462.5,606.8,460.7z"/>
		<path class="st56" d="M430.4,461.6c-5-8-6.2-16.6-4-25.7c2.5-10.5,8.1-19.2,17.6-24.5c13.5-7.6,27-7.5,40.2,0.9
			c3.1,2,5.8,4.4,7.7,7.7c0.4,1.4,1.1,2.7,0.8,4.2c-1.9,10-3.1,20.2-6.6,29.8c-3.5,9.7-15,15.8-26.6,14.5
			c-7.3-0.8-14.4-2.5-21.7-3.1C435,465.1,432.1,464.3,430.4,461.6z"/>
		<path class="st57" d="M430.4,461.6c4.1,1.7,8.3,3.1,12.9,3c2.8-0.1,5.6,1,8.4,1.4c4.1,0.5,8.1,1.7,12.2,1.4
			c6.1-0.4,11.3-2.5,15.9-6.6c3.9-3.5,5.9-7.9,7-12.7c1.8-8,3.3-16.1,4.9-24.2c0.2-1.2,0.2-2.5,0.3-3.8c5.6,4.9,8,11.5,9.1,18.5
			c1.2,7.9,0.5,15.7-3.4,22.8c-6.1,11.1-15.1,18.5-27.7,20.9c-5.2,1-10.5,0.4-15.7-0.9c-3.4-0.9-6.7-2-9.9-3.7
			C437.7,474.2,433,468.9,430.4,461.6z"/>
		<path class="st58" d="M519.5,782.1c-6.7-6.1-11.1-13.5-12.8-22.4c-1.2-6.3-0.9-12.7,0.6-19c2.1-9,5.9-17.1,12.7-23.7
			c6.2-5.9,13.6-9.4,21.8-11.3c9.2-2.1,18.3-2.2,27.2,1.5c8.2,3.4,14.6,9,19.9,16c0.8,1,1.2,2.3,1.7,3.4c2.2,4.6,2,9.5,1,14.1
			c-2.8,12.6-7.9,24.3-16.9,33.9c-2.3,2.5-5,4.4-8.4,5.2c-3,0.7-5.8,1.7-8.7,2.8c-11.1,4.3-22.4,1.6-33.7,1.5
			C522.2,784,520.9,782.7,519.5,782.1z"/>
		<path class="st59" d="M519.5,782.1c5.3,1.2,10.7,0.9,16.1,0.9c0.5,0,1-0.1,1.4,0.1c7,2.2,13.5-0.2,20.1-1.9
			c3.5-0.9,6.9-2.5,10.5-3.1c1.6-0.3,2.9-1.2,4-2.4c5.7-5.9,10.7-12.2,13.5-20c0.5-1.3,1.2-2.6,1.6-4c4-11.3,4-11.3,3.8-25.2
			c2.6,2.5,4.2,5.6,5.3,9c1.8,5.2,2.6,10.6,2.1,16c-0.3,3.5-0.8,6.9-1.5,10.4c-3.8,16.9-19.4,31.6-36.3,33.9
			c-12.2,1.6-23.5-0.2-33.8-7C523.6,786.9,521.2,784.9,519.5,782.1z"/>
		<path class="st60" d="M638.5,425c2.7,0.2,5.4,0.5,8,1.1c13.1,2.7,18,18.1,11.7,27.9c-3,4.7-7.1,8.1-12.5,9.7
			c-5,1.5-9.8,0.8-14.2-2c-5.4-3.4-8.8-8.2-9.7-14.6c2.1-2.3,7-11.7,8.4-16C631.5,427.1,634.4,424.9,638.5,425z"/>
		<path class="st61" d="M638.5,425c-1.3,0.7-2.6,1.2-3.8,2c-2.4,1.6-3.6,4-3.8,6.8c-0.1,1.3-0.1,2.6,0,3.8c0.3,3.5-1.4,5.8-4.3,7.4
			c-1.5,0.8-3.2,1.4-4.8,2.1c-0.5-0.1-0.9-0.2-1.4-0.3c-5.9-1.7-9.1-6.3-7.6-12.3c2.5-10.3,9.1-17.4,18.8-21.5
			c1.9-0.8,4.1-0.7,6.1-0.2c4.1,1,6.6,6.3,3.1,9.7C639.9,423.3,639.2,424.2,638.5,425z"/>
		<path class="st62" d="M460.8,425.1c2.7,0.3,5.4,0.2,8.1,0.8c8.4,1.9,14.3,10.2,13.9,19.4c-0.2,5.4-2.4,10.2-6.4,14
			c-6,5.8-14.8,7-22.8,1.7c-4.4-2.9-7.2-7.2-9.4-11.8c-0.3-0.5-0.1-1.2-0.1-1.9c0.2-0.4,0.5-0.9,0.9-1.1c6-2,7.6-6.3,7.5-12.3
			C452.3,428.4,455.7,425.4,460.8,425.1z"/>
		<path class="st63" d="M460.8,425.1c-1,0.5-2,0.9-2.9,1.5c-3.3,2-4.9,4.8-4.6,8.7c0.1,1.1,0.1,2.2,0.1,3.3c0.1,3.6-1.7,6-4.9,7.3
			c-1.4,0.6-3,0.9-4.5,1.4c-0.7-0.3-1.5-0.6-2.2-0.8c-4.6-1.6-6.6-5.8-6.4-10.1c0.1-1.9,0.5-3.8,1.3-5.6c3.1-7.3,8.1-12.9,15.3-16.4
			c2.2-1.1,4.4-1.8,6.9-1.6c2.2,0.2,4,1.1,5.2,3c1.3,2.1,1.2,4.3-0.4,6.2C462.7,423,461.7,424,460.8,425.1z"/>
		<path class="st64" d="M542.7,719c0.1,1.9-0.7,3.5-2.2,4.5c-6.5,4.3-10.6,10.5-14.2,17.2c-1.8,3.3-3.7,4.2-7,3.7
			c-3.1-0.5-5.1-2.7-5.3-5.9c-0.1-2,0.4-3.8,1.1-5.6c3.1-7.4,8.1-13.3,14.9-17.7c2.4-1.5,5-2.1,7.8-1.8
			C540.7,713.9,542.6,716,542.7,719z"/>
	</g>
	<text transform="matrix(1 0 0 1.25 526.0068 766.3826)" class="st2 st65 st66">SC</text>
</g>
<g id="Sitecore">
	<g id="Layer_4">
		<path class="st67" d="M784.7,783c-2.3-8.2-10.5-12.1-18.5-10.5c-9.4,1.9-16.9,8.3-22.8,15.5c-5.7,6.9-9.4,11.8-16.5,15.5
			c-9.8,5-20.2,8.9-30.2,13.2c-10.4,4.5-20.7,8.9-31.1,13.4c-37.7,16.1-79.3,32.1-120.3,33.5c-25.6,0.9-50.1-3.5-75.1-7.9
			c-7.7-1.4-16.5,2.1-18.5,10.5c-1.7,7.3,2.2,17,10.5,18.5c23.6,4.2,47.5,8.5,71.5,9.1c22.9,0.5,45.8-2.9,67.9-8.7
			c44.4-11.7,86.4-32.1,128.5-50.2c10.7-4.6,20.7-9.3,28.6-18.2c3.1-3.5,5.8-7.4,9-10.8c0.6-0.6,1.2-1.2,1.8-1.9
			c0.3-0.3,0.7-0.7,1.1-1c0.6-0.3,1.2-0.6,1.7-1c0.7-0.2,1.3-0.4,2-0.5C782.1,799.8,786.7,790.5,784.7,783z"/>
	</g>
	<path class="st0" d="M840.3,714.6c-99.7,173.3-322.2,233.3-495.4,133.1c-77.6-44.7-132.5-113.8-160.2-192.5
		c8.5,37.4,22.6,73,42.5,107C335.2,949,575.3,1013.6,762.2,905.4c64.5-37.4,113.8-90,147.2-151.2L840.3,714.6z"/>
	<path class="st0" d="M822.2,703.8l10.8-18.1l86.6,49.8c25.5-52.7,38.5-111,38.5-169.9c0-10.8-0.6-22.1-1.7-32.8H833.5
		c0,169.9-163.6,310.9-333.5,310.9c-74.7,0-148.9-21.5-208.9-62.3c19.3,18.1,40.8,34.5,64,47.6C518.7,923.5,728.2,866.9,822.2,703.8
		z"/>
	<path class="st0" d="M716.3,736.7c62.3-56.6,96.3-128.5,96.3-203.8v-21h141.6c-6.8-48.7-22.6-96.8-48.7-141.6
		c-8.5-14.2-17.6-27.7-27.2-40.8l-139.9,81c88.3,152.9-7.4,288.2-124.6,356.2c-47,27.2-107,47.6-167.6,52.7c17.6,2.8,36.2,4,54.9,4
		C577.6,822.7,656.3,791.6,716.3,736.7z"/>
</g>
</svg>
